<svg width="35" height="35" viewBox="0 0 35 35" fill="none" xmlns="http://www.w3.org/2000/svg">
<path d="M19.3125 4C27.7694 4 34.625 9.34333 34.625 15.9365C34.625 22.5281 27.7694 27.8715 19.3125 27.8715C18.4704 27.8719 17.6292 27.8183 16.794 27.711L10.3656 31.9154C9.635 32.3019 9.37688 32.2596 9.67729 31.3131L10.9781 25.9494C6.77812 23.8202 4 20.1306 4 15.9365C4 9.34479 10.8556 4 19.3125 4ZM27.9269 15.7542L30.0706 13.6775C30.1943 13.549 30.2633 13.3776 30.2631 13.1992C30.2629 13.0209 30.1935 12.8496 30.0695 12.7214C29.9455 12.5933 29.7765 12.5182 29.5983 12.5121C29.4201 12.506 29.2464 12.5694 29.114 12.6887L26.3023 15.41V13.1612C26.3023 12.9787 26.2298 12.8036 26.1007 12.6745C25.9716 12.5454 25.7965 12.4729 25.614 12.4729C25.4314 12.4729 25.2563 12.5454 25.1272 12.6745C24.9981 12.8036 24.9256 12.9787 24.9256 13.1612V16.8902C24.8998 16.9966 24.8998 17.1076 24.9256 17.214V19.3125C24.9256 19.4951 24.9981 19.6701 25.1272 19.7992C25.2563 19.9283 25.4314 20.0008 25.614 20.0008C25.7965 20.0008 25.9716 19.9283 26.1007 19.7992C26.2298 19.6701 26.3023 19.4951 26.3023 19.3125V17.3248L26.925 16.7225L29.0075 19.6873C29.0595 19.7613 29.1256 19.8244 29.2019 19.8728C29.2783 19.9213 29.3635 19.9543 29.4526 19.9699C29.5417 19.9855 29.633 19.9833 29.7212 19.9636C29.8095 19.9439 29.8931 19.907 29.9671 19.855C30.0411 19.803 30.1042 19.7369 30.1526 19.6606C30.2011 19.5842 30.2341 19.499 30.2497 19.4099C30.2652 19.3208 30.2631 19.2295 30.2434 19.1413C30.2237 19.053 30.1868 18.9694 30.1348 18.8954L27.9269 15.7527V15.7542ZM23.6131 18.56H21.484V13.1831C21.4758 13.0062 21.3998 12.8393 21.2717 12.717C21.1437 12.5947 20.9734 12.5265 20.7964 12.5265C20.6193 12.5265 20.449 12.5947 20.321 12.717C20.1929 12.8393 20.1169 13.0062 20.1087 13.1831V19.2483C20.1087 19.6275 20.415 19.9367 20.7956 19.9367H23.6131C23.7957 19.9367 23.9708 19.8641 24.0999 19.7351C24.2289 19.606 24.3015 19.4309 24.3015 19.2483C24.3015 19.0658 24.2289 18.8907 24.0999 18.7616C23.9708 18.6325 23.7957 18.56 23.6131 18.56V18.56ZM15.0717 16.9675L16.0867 14.4781L17.0171 16.9675H15.0717V16.9675ZM18.751 17.6792L18.754 17.6558C18.7536 17.4824 18.6874 17.3156 18.5688 17.1892L17.0433 13.1058C16.9794 12.9112 16.8576 12.7408 16.6942 12.6173C16.5308 12.4938 16.3336 12.423 16.129 12.4146C15.9228 12.4137 15.7213 12.4756 15.5512 12.592C15.381 12.7085 15.2504 12.8739 15.1767 13.0665L12.7544 19.0092C12.7202 19.0929 12.7028 19.1825 12.7033 19.2729C12.7037 19.3633 12.722 19.4527 12.757 19.536C12.792 19.6194 12.8431 19.695 12.9073 19.7586C12.9715 19.8223 13.0477 19.8726 13.1314 19.9068C13.215 19.941 13.3046 19.9583 13.3951 19.9579C13.4855 19.9574 13.5749 19.9392 13.6582 19.9042C13.7416 19.8692 13.8172 19.8181 13.8808 19.7539C13.9444 19.6896 13.9948 19.6135 14.029 19.5298L14.5102 18.3442H17.529L17.965 19.5108C17.9946 19.598 18.0415 19.6784 18.1028 19.7472C18.164 19.816 18.2385 19.8717 18.3217 19.9112C18.4049 19.9507 18.4952 19.973 18.5872 19.977C18.6793 19.9809 18.7711 19.9664 18.8574 19.9342C18.9437 19.9019 19.0227 19.8527 19.0896 19.7895C19.1565 19.7262 19.2101 19.6501 19.2471 19.5658C19.2841 19.4814 19.3038 19.3905 19.305 19.2984C19.3062 19.2063 19.2889 19.1149 19.2542 19.0296L18.751 17.6792V17.6792ZM13.9065 13.1904C13.9065 13.0081 13.8341 12.8333 13.7054 12.7042C13.5766 12.5752 13.4019 12.5025 13.2196 12.5021H8.48729C8.30473 12.5021 8.12965 12.5746 8.00057 12.7037C7.87148 12.8328 7.79896 13.0079 7.79896 13.1904C7.79896 13.373 7.87148 13.5481 8.00057 13.6771C8.12965 13.8062 8.30473 13.8787 8.48729 13.8787H10.179V19.3271C10.179 19.5096 10.2515 19.6847 10.3806 19.8138C10.5097 19.9429 10.6847 20.0154 10.8673 20.0154C11.0498 20.0154 11.2249 19.9429 11.354 19.8138C11.4831 19.6847 11.5556 19.5096 11.5556 19.3271V13.8787H13.2181C13.4007 13.8787 13.5758 13.8062 13.7049 13.6771C13.8339 13.5481 13.9065 13.373 13.9065 13.1904V13.1904Z" fill="white"/>
</svg>
