<svg width="35" height="35" viewBox="0 0 35 35" fill="none" xmlns="http://www.w3.org/2000/svg">
<path d="M24.7916 19.1479V24.5393H21.6664V19.5081C21.6664 18.2452 21.2144 17.3833 20.0827 17.3833C19.2194 17.3833 18.7046 17.9637 18.4785 18.5266C18.3969 18.7279 18.375 19.0079 18.375 19.2879V24.5393H15.2483C15.2483 24.5393 15.2906 16.0198 15.2483 15.1375H18.375V16.4689L18.3546 16.4996H18.375V16.4704C18.7906 15.8287 19.5314 14.9158 21.1925 14.9158C23.2487 14.9158 24.7916 16.2604 24.7916 19.1479V19.1479ZM11.9773 10.6035C10.9083 10.6035 10.2083 11.3064 10.2083 12.2281C10.2083 13.1323 10.8879 13.8541 11.9364 13.8541H11.9569C13.0477 13.8541 13.7258 13.1308 13.7258 12.2281C13.7054 11.3064 13.0477 10.6035 11.9773 10.6035V10.6035ZM10.3935 24.5393H13.5202V15.1375H10.3935V24.5393V24.5393Z" fill="white"/>
<path d="M8.74999 5.83329C7.97644 5.83329 7.23458 6.14058 6.68759 6.68756C6.14061 7.23455 5.83332 7.97641 5.83332 8.74996V26.25C5.83332 27.0235 6.14061 27.7654 6.68759 28.3124C7.23458 28.8593 7.97644 29.1666 8.74999 29.1666H26.25C27.0235 29.1666 27.7654 28.8593 28.3124 28.3124C28.8594 27.7654 29.1667 27.0235 29.1667 26.25V8.74996C29.1667 7.97641 28.8594 7.23455 28.3124 6.68756C27.7654 6.14058 27.0235 5.83329 26.25 5.83329H8.74999ZM8.74999 2.91663H26.25C27.7971 2.91663 29.2808 3.53121 30.3748 4.62517C31.4687 5.71913 32.0833 7.20286 32.0833 8.74996V26.25C32.0833 27.7971 31.4687 29.2808 30.3748 30.3747C29.2808 31.4687 27.7971 32.0833 26.25 32.0833H8.74999C7.20289 32.0833 5.71916 31.4687 4.6252 30.3747C3.53124 29.2808 2.91666 27.7971 2.91666 26.25V8.74996C2.91666 7.20286 3.53124 5.71913 4.6252 4.62517C5.71916 3.53121 7.20289 2.91663 8.74999 2.91663V2.91663Z" fill="white"/>
</svg>
