<svg width="30" height="30" viewBox="0 0 30 30" fill="none" xmlns="http://www.w3.org/2000/svg">
<path d="M25.1514 22.3711C24.5987 21.062 23.7967 19.873 22.7901 18.8701C21.7864 17.8644 20.5976 17.0625 19.2891 16.5088C19.2774 16.5029 19.2656 16.5 19.2539 16.4941C21.0791 15.1758 22.2656 13.0283 22.2656 10.6055C22.2656 6.5918 19.0137 3.33984 15 3.33984C10.9863 3.33984 7.73439 6.5918 7.73439 10.6055C7.73439 13.0283 8.92091 15.1758 10.7461 16.4971C10.7344 16.5029 10.7227 16.5059 10.7109 16.5117C9.39845 17.0654 8.22072 17.8594 7.20997 18.873C6.20424 19.8767 5.40237 21.0655 4.84865 22.374C4.30467 23.655 4.01129 25.0285 3.98439 26.4199C3.98361 26.4512 3.98909 26.4823 4.00052 26.5114C4.01195 26.5405 4.02909 26.5671 4.05093 26.5895C4.07277 26.6118 4.09887 26.6296 4.1277 26.6418C4.15652 26.6539 4.18748 26.6602 4.21876 26.6602H5.97657C6.10548 26.6602 6.20802 26.5576 6.21095 26.4316C6.26954 24.1699 7.17775 22.0518 8.78322 20.4463C10.4443 18.7852 12.6504 17.8711 15 17.8711C17.3496 17.8711 19.5557 18.7852 21.2168 20.4463C22.8223 22.0518 23.7305 24.1699 23.7891 26.4316C23.792 26.5605 23.8945 26.6602 24.0234 26.6602H25.7813C25.8125 26.6602 25.8435 26.6539 25.8723 26.6418C25.9012 26.6296 25.9273 26.6118 25.9491 26.5895C25.9709 26.5671 25.9881 26.5405 25.9995 26.5114C26.0109 26.4823 26.0164 26.4512 26.0156 26.4199C25.9863 25.0195 25.6963 23.6572 25.1514 22.3711V22.3711ZM15 15.6445C13.6553 15.6445 12.3897 15.1201 11.4375 14.168C10.4854 13.2158 9.96095 11.9502 9.96095 10.6055C9.96095 9.26074 10.4854 7.99512 11.4375 7.04297C12.3897 6.09082 13.6553 5.56641 15 5.56641C16.3447 5.56641 17.6104 6.09082 18.5625 7.04297C19.5147 7.99512 20.0391 9.26074 20.0391 10.6055C20.0391 11.9502 19.5147 13.2158 18.5625 14.168C17.6104 15.1201 16.3447 15.6445 15 15.6445Z" fill="white"/>
</svg>
